<svg width="20" height="12" viewBox="0 0 20 12" fill="none" xmlns="http://www.w3.org/2000/svg">
<path d="M6.03691 0.000220895C3.77947 -0.0270511 2.62825 2.47651 3.33073 4.41828C3.70822 6.57754 3.34323 7.72228 2.00139 7.75569C1.34515 7.67796 0.855165 7.97522 0.359553 8.51589C-0.256682 9.18133 -0.237307 11.7183 1.67952 11.9822C3.13823 12.1812 4.15446 10.4461 3.5751 9.01633C2.11013 5.51393 9.4212 5.4328 8.20123 8.7402C8.19811 8.74361 8.19498 8.74702 8.19123 8.75384C7.36125 10.1993 8.4031 12.0449 10.0131 11.9706C11.6255 12.0415 12.6567 10.1924 11.833 8.75316C11.8309 8.74806 11.8279 8.74343 11.8243 8.73952C10.6043 5.4328 17.9147 5.51393 16.4504 9.01701C16.3036 9.36549 16.2426 9.74972 16.2735 10.1318C16.4254 11.9358 18.4016 12.6353 19.5234 11.3208C20.0747 10.8204 20.2378 9.10497 19.5234 8.33794C19.3303 8.12378 19.0951 7.96013 18.8356 7.85929C18.5762 7.75845 18.2992 7.72303 18.0254 7.75569C16.6848 7.7216 16.2923 6.57754 16.6704 4.41896C17.3766 2.47583 16.2098 -0.0236421 13.9642 0.000902645C11.5674 0.0240838 11.5368 2.77037 10.0131 2.77037C8.52372 2.77037 8.4181 0.0240839 6.03691 0.000220895ZM10.0043 3.44944H10.0231C10.2784 3.44944 10.5312 3.50431 10.767 3.61091C11.0029 3.71752 11.2172 3.87376 11.3977 4.07073C11.5782 4.2677 11.7213 4.50153 11.819 4.75887C11.9166 5.01621 11.9668 5.29201 11.9668 5.57052C11.9668 6.41595 11.373 7.6916 10.0231 7.6916H10.0043C8.6606 7.6916 8.05873 6.4255 8.05873 5.5712C8.05923 5.00852 8.26439 4.46906 8.62917 4.07125C8.99394 3.67344 9.48852 3.4498 10.0043 3.44944Z" fill="#1C1C1C"/>
</svg>
