<svg width="30" height="30" viewBox="0 0 30 30" fill="none" xmlns="http://www.w3.org/2000/svg">
<path d="M19.7238 11.3987C19.3061 11.2037 18.9114 11.0729 18.5371 11.0112C18.1642 10.947 17.566 10.9167 16.7377 10.9167H14.5871V19.8667H16.7922C17.652 19.8667 18.3204 19.8074 18.7975 19.69C19.2746 19.5725 19.6718 19.4248 19.9903 19.2431C20.311 19.0614 20.6055 18.8369 20.8658 18.5759C21.7147 17.7137 22.1397 16.6263 22.1397 15.3112C22.1397 14.0191 21.7038 12.9644 20.8307 12.1482C20.5085 11.8455 20.138 11.5948 19.7238 11.3986V11.3987ZM15 0.46875C6.97395 0.46875 0.46875 6.97512 0.46875 15C0.46875 23.0249 6.97395 29.5312 15 29.5312C23.0261 29.5312 29.5312 23.0249 29.5312 15C29.5312 6.97512 23.0261 0.46875 15 0.46875ZM10.1756 21.4168H8.45361V9.38367H10.1756V21.4168ZM9.31348 8.12672C8.66074 8.12672 8.12912 7.59879 8.12912 6.94242C8.12912 6.29098 8.65951 5.75936 9.31348 5.75936C9.96855 5.75936 10.4989 6.28975 10.4989 6.94242C10.4991 7.09808 10.4685 7.25224 10.409 7.39607C10.3494 7.53989 10.2621 7.67056 10.152 7.78057C10.0418 7.89059 9.91109 7.97779 9.76721 8.03719C9.62333 8.09659 9.46914 8.12701 9.31348 8.12672ZM23.4572 17.7125C23.1472 18.4475 22.7052 19.0942 22.13 19.6512C21.5452 20.2276 20.8646 20.6587 20.0884 20.9518C19.6343 21.1286 19.2189 21.2484 18.8399 21.3102C18.4597 21.3696 17.7367 21.3986 16.6675 21.3986H12.8615V9.38367H16.9181C18.5565 9.38367 19.8498 9.62707 20.8041 10.1187C21.7571 10.6092 22.5139 11.3333 23.077 12.2851C23.6401 13.2381 23.9222 14.2783 23.9222 15.402C23.9236 16.2086 23.766 16.9787 23.4572 17.7125H23.4572Z" fill="#A6CE39"/>
</svg>
